<?xml version="1.0" standalone="no"?>
<!DOCTYPE svg PUBLIC "-//W3C//DTD SVG 20010904//EN"
 "http://www.w3.org/TR/2001/REC-SVG-20010904/DTD/svg10.dtd">
<svg version="1.0" xmlns="http://www.w3.org/2000/svg"
 width="700.000000pt" height="700.000000pt" viewBox="0 0 700.000000 700.000000"
 preserveAspectRatio="xMidYMid meet">
<metadata>
Created by potrace 1.11, written by Peter Selinger 2001-2013
</metadata>
<g transform="translate(0.000000,700.000000) scale(0.100000,-0.100000)"
fill="#000000" stroke="none">
<path d="M3505 6358 c-27 -16 -767 -756 -788 -788 -15 -23 -16 -72 -14 -469
l2 -443 328 -324 c221 -217 326 -328 321 -336 -4 -7 -223 -229 -485 -493 -263
-264 -610 -614 -772 -777 l-294 -298 -42 37 c-55 47 -104 49 -153 8 -35 -29
-158 -140 -213 -190 -17 -16 -61 -55 -96 -86 -35 -31 -76 -67 -90 -80 -33 -31
-189 -171 -254 -229 -133 -118 -165 -156 -165 -191 0 -19 7 -44 15 -56 32 -45
817 -824 840 -833 27 -10 70 -5 95 13 9 7 54 55 101 107 46 52 91 102 99 110
8 8 49 53 90 100 41 47 80 90 86 95 6 6 84 93 175 195 90 102 169 190 175 195
49 45 51 112 4 160 l-30 29 353 349 c193 192 547 542 785 779 l433 431 33 -34
c175 -181 630 -621 650 -629 34 -13 827 -13 861 0 24 9 99 81 621 596 l194
191 0 441 0 441 -29 33 c-16 18 -161 166 -323 329 -161 163 -299 303 -307 313
-12 15 -5 25 68 100 76 79 81 86 81 127 0 44 -2 46 -149 189 -82 80 -205 199
-273 266 -75 73 -135 123 -150 126 -41 8 -82 -16 -152 -86 -36 -36 -69 -66
-73 -66 -5 0 -149 141 -320 314 -171 172 -321 321 -334 330 -21 14 -71 16
-454 16 -306 -1 -436 -4 -450 -12z m1225 -611 c938 -944 1370 -1382 1368
-1388 -2 -4 -154 -161 -338 -349 -184 -188 -372 -381 -418 -429 -46 -47 -128
-131 -184 -187 l-100 -101 74 -73 73 -72 195 200 c107 109 324 331 481 492
l286 293 -1 -276 -1 -277 -115 -111 c-63 -61 -217 -212 -342 -336 l-226 -224
-356 0 -355 0 -110 108 c-334 330 -1253 1236 -1480 1460 l-265 260 51 49 c27
27 207 203 399 390 192 188 418 408 502 490 83 81 152 150 152 153 0 4 -31 39
-68 78 l-68 72 -141 -137 c-265 -258 -786 -767 -809 -792 l-24 -25 -1 30 c-1
17 -1 121 -1 232 l-1 202 344 343 344 344 360 0 360 -1 415 -418z m714 -303
l169 -165 -31 -32 -32 -33 -172 173 -172 172 25 25 c13 13 29 24 34 25 6 0 86
-74 179 -165z m-1754 -1758 c165 -163 171 -170 153 -187 -17 -17 -28 -14 -263
65 -135 46 -251 85 -259 87 -9 3 22 41 89 108 56 56 104 101 105 99 2 -2 81
-79 175 -172z m-290 -277 c135 -45 248 -84 252 -88 4 -4 -43 -56 -105 -117
l-112 -111 -257 87 -257 86 112 112 c62 62 114 112 117 112 3 0 115 -37 250
-81z m-408 -383 c123 -41 236 -79 252 -85 l29 -12 -99 -100 c-54 -55 -107
-105 -116 -110 -13 -7 -60 4 -175 42 -87 28 -167 55 -178 60 -11 4 -51 18 -90
31 -38 12 -72 24 -74 25 -6 5 211 223 221 223 4 0 108 -33 230 -74z m-360
-397 c134 -45 245 -83 246 -84 2 -2 -43 -50 -101 -108 l-105 -104 -247 82
c-135 44 -247 85 -248 90 -2 13 185 204 200 204 7 1 122 -35 255 -80z m-375
-374 c122 -40 228 -77 235 -82 9 -6 -17 -37 -93 -111 l-107 -104 -82 79 c-45
43 -122 116 -171 163 l-89 86 28 27 c16 16 33 25 42 21 8 -3 115 -38 237 -79z
m-518 -52 c32 -32 131 -128 221 -213 89 -85 193 -185 231 -221 l69 -66 -53
-59 c-30 -32 -139 -153 -242 -269 -104 -115 -201 -223 -216 -240 -15 -16 -36
-40 -47 -53 -11 -12 -22 -22 -24 -22 -9 0 -628 621 -628 630 0 11 10 21 90 90
35 30 68 60 74 65 6 6 58 53 116 105 58 52 110 99 116 105 6 5 46 42 89 80 43
39 92 82 109 98 17 15 32 27 34 27 2 0 29 -26 61 -57z"/>
</g>
</svg>
