<svg xmlns="http://www.w3.org/2000/svg" width="512" height="512" viewBox="0 0 512 512">
  <defs>
    <style>
      .cls-1 {
        fill: none;
        stroke: #3f3f3f;
        stroke-linejoin: round;
        stroke-width: 5px;
        fill-rule: evenodd;
      }
    </style>
  </defs>
  <path id="形状_317_1" data-name="形状 317 1" class="cls-1" d="M30.913,414.969l66.049-59.328,60.451,58.208L96.962,481.013ZM250.329,221.313l-143.292,144.4,41.42,39.179L291.749,262.731M191,163.1L352.2,322.059h66.049l62.69-61.567V193.328L320.855,32.135H253.687L191,94.821V163.1Zm1.119-6.716,95.155-92.91M478.7,192.209l-92.916,95.148m-5.6-195.894,16.792-16.791,41.42,40.3-17.911,17.911M121.59,351.163l60.451,20.149M217.864,254.9l60.451,20.149M185.4,287.357l60.451,20.15M152.935,319.82l60.451,20.149"/>
</svg>
